<svg viewBox="0 0 37 37" fill="none" xmlns="http://www.w3.org/2000/svg">
<path fill-rule="evenodd" clip-rule="evenodd" d="M18.3333 28.3334C23.8561 28.3334 28.3333 23.8562 28.3333 18.3334C28.3333 12.8105 23.8561 8.33337 18.3333 8.33337C12.8104 8.33337 8.33325 12.8105 8.33325 18.3334C8.33325 23.8562 12.8104 28.3334 18.3333 28.3334ZM18.3333 25C22.0151 25 24.9999 22.0152 24.9999 18.3334C24.9999 14.6515 22.0151 11.6667 18.3333 11.6667C14.6514 11.6667 11.6666 14.6515 11.6666 18.3334C11.6666 22.0152 14.6514 25 18.3333 25Z" fill="#0F0F0F"/>
<path d="M28.3334 6.66663C27.4129 6.66663 26.6667 7.41283 26.6667 8.33329C26.6667 9.25376 27.4129 9.99996 28.3334 9.99996C29.2539 9.99996 30.0001 9.25376 30.0001 8.33329C30.0001 7.41283 29.2539 6.66663 28.3334 6.66663Z" fill="#0F0F0F"/>
<path fill-rule="evenodd" clip-rule="evenodd" d="M1.08993 5.4601C0 7.59922 0 10.3995 0 16V20.6667C0 26.2672 0 29.0675 1.08993 31.2065C2.04867 33.0882 3.57847 34.618 5.4601 35.5767C7.59922 36.6667 10.3995 36.6667 16 36.6667H20.6667C26.2672 36.6667 29.0675 36.6667 31.2065 35.5767C33.0882 34.618 34.618 33.0882 35.5767 31.2065C36.6667 29.0675 36.6667 26.2672 36.6667 20.6667V16C36.6667 10.3995 36.6667 7.59922 35.5767 5.4601C34.618 3.57847 33.0882 2.04867 31.2065 1.08993C29.0675 0 26.2672 0 20.6667 0H16C10.3995 0 7.59922 0 5.4601 1.08993C3.57847 2.04867 2.04867 3.57847 1.08993 5.4601ZM20.6667 3.33333H16C13.1447 3.33333 11.2037 3.33593 9.70347 3.4585C8.24207 3.5779 7.49473 3.79432 6.9734 4.05995C5.71898 4.69912 4.69912 5.71898 4.05995 6.9734C3.79432 7.49473 3.5779 8.24207 3.4585 9.70347C3.33593 11.2037 3.33333 13.1447 3.33333 16V20.6667C3.33333 23.522 3.33593 25.4628 3.4585 26.9632C3.5779 28.4247 3.79432 29.172 4.05995 29.6933C4.69912 30.9477 5.71898 31.9675 6.9734 32.6067C7.49473 32.8723 8.24207 33.0888 9.70347 33.2082C11.2037 33.3307 13.1447 33.3333 16 33.3333H20.6667C23.522 33.3333 25.4628 33.3307 26.9632 33.2082C28.4247 33.0888 29.172 32.8723 29.6933 32.6067C30.9477 31.9675 31.9675 30.9477 32.6067 29.6933C32.8723 29.172 33.0888 28.4247 33.2082 26.9632C33.3307 25.4628 33.3333 23.522 33.3333 20.6667V16C33.3333 13.1447 33.3307 11.2037 33.2082 9.70347C33.0888 8.24207 32.8723 7.49473 32.6067 6.9734C31.9675 5.71898 30.9477 4.69912 29.6933 4.05995C29.172 3.79432 28.4247 3.5779 26.9632 3.4585C25.4628 3.33593 23.522 3.33333 20.6667 3.33333Z" fill="#0F0F0F"/>
</svg>
