<svg viewBox="0 0 30 34" fill="none" xmlns="http://www.w3.org/2000/svg">
<path d="M23.0363 5.55725C21.8145 4.15649 21.08 2.33 21.08 0.333252H19.5488C19.9432 2.51575 21.2423 4.38869 23.0363 5.55725Z" fill="black"/>
<path d="M8.86963 16.8413C6.21726 16.8413 4.05981 19.0006 4.05981 21.6551C4.05981 23.5049 5.11148 25.1146 6.64256 25.9194C6.07035 25.1301 5.7301 24.1628 5.7301 23.1101C5.7301 20.4556 7.88755 18.2963 10.54 18.2963C11.0348 18.2963 11.5142 18.3813 11.9628 18.5206V12.6698C11.4987 12.6078 11.0271 12.5691 10.54 12.5691C10.4549 12.5691 10.3775 12.5768 10.2925 12.5768V17.0656C9.83623 16.9263 9.36451 16.8413 8.86963 16.8413Z" fill="black"/>
<path d="M27.3742 8.12671V12.5768C24.4048 12.5768 21.652 11.6249 19.4093 10.0151V21.6627C19.4093 27.4751 14.6847 32.2116 8.86953 32.2116C6.62702 32.2116 4.53917 31.4996 2.8302 30.2999C4.75567 32.3662 7.50082 33.6666 10.5399 33.6666C16.3472 33.6666 21.0797 28.9377 21.0797 23.1177V11.4701C23.3222 13.0799 26.075 14.0317 29.0445 14.0317V8.30479C28.4645 8.30479 27.9077 8.24281 27.3742 8.12671Z" fill="black"/>
<path d="M19.4093 21.6628V10.0151C21.652 11.6249 24.4048 12.5768 27.3742 12.5768V8.12672C25.6575 7.76305 24.1498 6.8343 23.0363 5.55725C21.2423 4.38869 19.9507 2.51575 19.5408 0.333252H15.3497L15.3418 23.2958C15.2492 25.8653 13.1303 27.9317 10.5399 27.9317C8.9314 27.9317 7.51628 27.1346 6.63475 25.9272C5.10365 25.1146 4.052 23.5126 4.052 21.6628C4.052 19.0083 6.20945 16.8489 8.8618 16.8489C9.3567 16.8489 9.83613 16.9341 10.2846 17.0734V12.5846C4.5933 12.7084 0 17.3829 0 23.1178C0 25.8884 1.07487 28.4116 2.8302 30.2999C4.53917 31.4996 6.62702 32.2116 8.86953 32.2116C14.6768 32.2116 19.4093 27.4751 19.4093 21.6628Z" fill="black"/>
</svg>
